<svg xmlns="http://www.w3.org/2000/svg" width="256" height="256" viewBox="0 0 256 256" role="img" aria-labelledby="title desc"><title id="title">ICON_FIRE_WARRIOR placeholder</title><desc id="desc">256 square icon placeholder for Fire Warrior archetype card.</desc><rect width="256" height="256" fill="#030303"/><path d="M128 42c48 58 14 72 42 110 12 18 8 42-8 58H94c-18-16-22-42-10-62 18-32 62-48 44-106z" fill="none" stroke="#b8893a" stroke-width="5"/><path d="M128 112c18 24 2 34 12 50 6 10 2 22-12 30-16-10-20-24-10-38 8-12 20-20 10-42z" fill="#b8893a" opacity=".45"/><text x="128" y="214" fill="#d8b66d" font-family="Georgia,serif" font-size="15" text-anchor="middle">ICON_FIRE_WARRIOR.svg</text><text x="128" y="234" fill="#b9b0a2" font-family="Arial,sans-serif" font-size="14" text-anchor="middle">256x256 | Card Icon</text></svg>
